<?xml version="1.0" encoding="utf-8"?>
<!-- Generator: Adobe Illustrator 16.0.0, SVG Export Plug-In . SVG Version: 6.00 Build 0)  -->
<!DOCTYPE svg PUBLIC "-//W3C//DTD SVG 1.1//EN" "http://www.w3.org/Graphics/SVG/1.1/DTD/svg11.dtd">
<svg version="1.1" id="Tour_Guide_1_" xmlns="http://www.w3.org/2000/svg" xmlns:xlink="http://www.w3.org/1999/xlink" x="0px"
	 y="0px" width="512px" height="512px" viewBox="0 0 512 512" enable-background="new 0 0 512 512" xml:space="preserve">
<circle id="Background_7_" fill="#009244" cx="256" cy="256" r="256"/>
<path id="Shadow_1_" opacity="0.1" d="M511.306,274.878L341.887,105.459H256V512C391.035,512,501.642,407.447,511.306,274.878z"/>
<g id="Tour_Guide">
	<path fill="#231F20" d="M272.73,304.614h-33.323c-45.577,0-90.001-55.773-90.001-94.241c0,0-15.647-124.465,106.663-124.465
		s106.663,124.465,106.663,124.465C362.731,248.841,318.307,304.614,272.73,304.614z"/>
	<path fill="#FFD0AE" d="M349.73,360.184c-74.441,0-57.833-36.507-62.884-73.06h-61.693c-5.05,36.553,11.558,73.06-62.884,73.06
		c-47.574,0-63.807,20.847-63.807,66.709v30.9C141.903,491.754,196.585,512,256,512c59.415,0,114.097-20.245,157.537-54.207v-30.9
		C413.537,381.03,397.305,360.184,349.73,360.184z"/>
	<path opacity="0.1" d="M288.117,308.324c-0.161-6.264-0.377-12.73-1.271-19.2h-61.693c-0.89,6.439-1.107,12.877-1.269,19.114
		c8.926,5.721,19.539,9.159,32.184,9.159C268.65,317.397,279.22,313.993,288.117,308.324z"/>
	<path fill="#A5DBE8" d="M349.73,360.184c-9.712,0-17.861-0.627-24.725-1.788L256,365.914l-69.006-7.519
		c-6.863,1.161-15.012,1.788-24.724,1.788c-47.574,0-63.807,20.847-63.807,66.709v30.9C141.903,491.754,196.585,512,256,512
		c59.415,0,114.097-20.245,157.537-54.207v-30.9C413.537,381.03,397.305,360.184,349.73,360.184z"/>
	<path fill="#102F40" d="M325.006,358.396l-68.937,107.271l-69.075-107.271c-6.863,1.161-15.012,1.788-24.724,1.788v134.102
		C191.297,505.714,222.913,512,256,512s64.703-6.286,93.73-17.715V360.184C340.019,360.184,331.869,359.557,325.006,358.396z"/>
	<path opacity="0.2" d="M256.171,465.602l5.511,8.558v37.773c0.395-0.009,0.788-0.02,1.183-0.03v-37.074L256.171,465.602z"/>
	<path fill="#FFFFFF" d="M221.48,332.181h-4.741l-29.985,25.876c0,0,14.549,45.559,32.181,45.559
		c17.631,0,37.064-37.701,37.064-37.701L221.48,332.181z"/>
	<path fill="#FFFFFF" d="M290.588,332.181h4.742l29.984,25.876c0,0-14.549,45.559-32.181,45.559s-37.065-37.701-37.065-37.701
		L290.588,332.181z"/>
	<ellipse fill="#FFD0AE" cx="181.188" cy="223.44" rx="13.799" ry="16.269"/>
	<ellipse fill="#FFD0AE" cx="330.95" cy="223.44" rx="13.799" ry="16.269"/>
	<path fill="#FFD0AE" d="M269.791,106.669h-27.445c-36.089,0-65.345,42.325-65.345,78.415c0,0,2.112,126.77,79.068,126.77
		s79.068-126.77,79.068-126.77C335.137,148.994,305.881,106.669,269.791,106.669z"/>
	<path fill="#231F20" d="M256.069,98.002c-69.333,0-90.667,64.331-77.005,109.169c0,0,10.644-8.292,31.928-14.198
		c0,0-1.341-17.474,3.115-40.827c-0.622,22.187,4.012,39.042,4.012,39.042c10.524-2.36,23.174-4.018,37.951-4.018
		c51.333,0,77.005,20,77.005,20C346.735,162.333,325.402,98.002,256.069,98.002z"/>
	<path opacity="0.1" d="M214.411,166.737c-0.306-4.472-0.451-9.381-0.305-14.59c-4.456,23.353-3.115,40.827-3.115,40.827
		c-21.284,5.906-31.928,14.198-31.928,14.198c-0.161-0.528-0.296-1.07-0.448-1.604c0.219,1.814,0.467,3.716,0.748,5.693
		c0.019-0.013,12.36-8.296,33.628-14.197C212.991,197.064,212.038,184.637,214.411,166.737z"/>
	<path opacity="0.1" d="M333.074,207.171c0,0-25.672-20-77.005-20c-14.318,0-26.622,1.563-36.947,3.807
		c0.573,2.756,0.996,4.301,0.996,4.301c10.524-2.361,23.174-4.018,37.951-4.018c42.894,0,67.855,13.957,74.909,18.548
		c0.199-1.461,0.379-2.873,0.544-4.24C333.37,206.103,333.235,206.644,333.074,207.171z"/>
	<path fill="#D44250" d="M302.549,374.657c-3.097-3.487-35.363-10.771-42.316-5.407h-8.465c-6.953-5.363-39.219,1.92-42.316,5.407
		C206.354,378.144,188,424,190.333,427.5c2.333,3.5,25.069-4.879,33.118-10.272c8.049-5.395,23.382-23.561,28.316-31.594h8.465
		c4.935,8.033,20.268,26.199,28.316,31.594c8.049,5.394,30.784,13.772,33.118,10.272C324,424,305.646,378.144,302.549,374.657z"/>
	<path opacity="0.1" d="M288.549,413.728c-8.049-5.395-23.382-23.561-28.316-31.594h-8.465
		c-4.934,8.033-20.267,26.199-28.316,31.594c-7.709,5.166-28.043,12.229-32.645,10.588c-0.572,1.623-0.768,2.742-0.473,3.185
		c2.333,3.5,25.069-4.879,33.118-10.272c8.049-5.395,23.382-23.561,28.316-31.594h8.465c4.935,8.033,20.268,26.199,28.316,31.594
		c8.049,5.394,30.784,13.772,33.118,10.272c0.294-0.442,0.099-1.562-0.474-3.185C316.592,425.956,296.258,418.894,288.549,413.728z"
		/>
	<path opacity="0.1" d="M251.553,369.263v16.358c0,0-0.917-4.152-0.917-8.179C250.637,373.415,251.553,369.263,251.553,369.263z"/>
	<path opacity="0.1" d="M260.446,369.263v16.358c0,0,0.917-4.152,0.917-8.179C261.363,373.415,260.446,369.263,260.446,369.263z"/>
	<path fill="#A5DBE8" d="M256.069,68.418c-68.961,0-94.063,39.565-102.844,74.082h205.687
		C350.132,107.983,325.029,68.418,256.069,68.418z"/>
	<path fill="#5F909B" d="M165.691,164.614h180.755c32.711,0,31.669-11.057,31.669-22.114H134.022
		C134.022,153.557,132.98,164.614,165.691,164.614z"/>
	<g>
		<path opacity="0.1" d="M154.459,138c-0.443,1.507-0.855,3.008-1.234,4.5h205.687c-0.379-1.492-0.791-2.993-1.234-4.5H154.459z"/>
	</g>
	<circle opacity="0.8" fill="#FFFFFF" cx="251.084" cy="478.861" r="5"/>
	<path opacity="0.1" d="M253.864,474.706c0.533,0.796,0.845,1.751,0.845,2.78c0,2.762-2.238,5-5,5c-1.029,0-1.984-0.313-2.78-0.846
		c0.897,1.339,2.422,2.221,4.155,2.221c2.762,0,5-2.238,5-5C256.084,477.129,255.203,475.604,253.864,474.706z"/>
	<circle opacity="0.8" fill="#FFFFFF" cx="251.084" cy="503.861" r="5"/>
	<path opacity="0.1" d="M253.864,499.706c0.533,0.796,0.845,1.751,0.845,2.78c0,2.762-2.238,5-5,5c-1.029,0-1.984-0.313-2.78-0.846
		c0.897,1.339,2.422,2.221,4.155,2.221c2.762,0,5-2.238,5-5C256.084,502.129,255.203,500.604,253.864,499.706z"/>
</g>
</svg>
